<svg width="531" height="487" viewBox="0 0 531 487" fill="none" xmlns="http://www.w3.org/2000/svg">
<g clip-path="url(#clip0_5_59)">
<path d="M0.737 429.15C0.737 427.215 0.752603 197.387 0.737 195.406C0.643377 177.243 0.58093 159.096 0.534119 140.933C0.502911 131.586 0.471677 122.255 0.424866 112.924C0.378054 103.905 0.346842 94.9019 0.331238 85.8829C0.315634 82.4501 0.300089 79.0172 0.284485 75.5844C0.253277 70.7628 0.237671 65.9413 0.237671 61.1197C0.222067 58.9976 0.222003 58.9976 0.190796 56.8443C0.268815 40.2263 6.05784 26.573 17.355 14.3709C29.5727 3.08934 42.1494 0.57713 58.3773 0.717564C61.1079 0.70196 61.1079 0.701963 63.9165 0.686359C68.9566 0.670756 73.9966 0.670756 79.0522 0.686359C84.4979 0.701963 89.9592 0.686353 95.405 0.67075C106.078 0.639542 116.751 0.639542 127.424 0.67075C136.1 0.67075 144.776 0.686353 153.451 0.67075C155.293 0.67075 155.293 0.67075 157.196 0.67075C159.708 0.67075 162.221 0.67075 164.733 0.67075C188.263 0.639542 211.809 0.670754 235.34 0.701961C255.516 0.733169 275.691 0.717567 295.882 0.686359C319.335 0.655152 342.787 0.655146 366.239 0.67075C368.736 0.67075 371.248 0.67075 373.745 0.67075C375.586 0.67075 375.586 0.67075 377.474 0.67075C386.134 0.686353 394.794 0.670751 403.454 0.655147C414.018 0.639544 424.582 0.639542 435.146 0.67075C440.529 0.686353 445.912 0.701963 451.295 0.686359C457.131 0.655152 462.982 0.686356 468.834 0.717564C470.519 0.70196 472.204 0.686353 473.936 0.67075C491.163 0.842391 503.006 6.24129 515.396 18.1001C527.067 30.6768 530.219 42.9101 530.157 59.7622C530.172 61.385 530.172 63.0078 530.188 64.6774C530.203 70.1075 530.203 75.5376 530.203 80.9833C530.203 84.8686 530.219 88.7696 530.235 92.6705C530.25 102.158 530.266 111.629 530.266 121.116C530.266 128.84 530.266 136.548 530.281 144.257C530.313 166.149 530.328 188.025 530.328 209.917C530.328 211.68 530.328 211.68 530.328 213.49C530.328 214.661 530.328 215.847 530.328 217.064C530.313 236.194 530.344 255.308 530.391 274.439C530.437 294.099 530.453 313.745 530.453 333.405C530.453 344.422 530.469 355.453 530.5 366.485C530.531 376.862 530.531 387.223 530.5 397.599C530.5 401.406 530.515 405.214 530.531 409.006C530.547 414.217 530.531 419.413 530.516 424.609C530.531 426.107 530.547 427.605 530.562 429.15C530.391 446.767 523.182 460.233 511.011 472.747C497.67 483.95 481.488 485.932 464.636 485.823C462.858 485.838 461.079 485.838 459.253 485.854C453.324 485.87 447.394 485.87 441.465 485.854C437.205 485.854 432.945 485.87 428.686 485.885C418.325 485.916 407.964 485.916 397.603 485.901C389.177 485.901 380.751 485.901 372.34 485.916C371.139 485.916 369.938 485.916 368.689 485.916C366.255 485.916 363.805 485.916 361.371 485.916C338.512 485.948 315.652 485.932 292.793 485.916C271.899 485.901 251.022 485.916 230.128 485.963C208.642 485.994 187.171 486.01 165.685 485.994C153.639 485.994 141.592 485.994 129.546 486.026C119.294 486.057 109.043 486.057 98.7911 486.026C93.5638 486.01 88.3365 486.01 83.1092 486.026C77.4294 486.057 71.7496 486.041 66.0699 486.01C64.4471 486.026 62.8087 486.041 61.1235 486.057C44.7395 485.885 26.916 484.219 14.9323 472.75C4.05933 460.604 0.737 454 0.737 429.15Z" fill="#FD6111"/>
<path d="M68.3665 31.9332C70.988 31.9176 70.988 31.9176 73.6718 31.902C79.5076 31.8864 85.359 31.902 91.1948 31.9332C95.3923 31.9332 99.5897 31.9176 103.787 31.902C113.992 31.8864 124.197 31.902 134.402 31.9176C146.292 31.9488 158.182 31.9488 170.072 31.9332C191.277 31.9332 212.498 31.9488 233.72 31.98C254.285 32.0268 274.867 32.0424 295.448 32.0268C317.871 31.9956 340.293 31.9956 362.7 32.0268C365.103 32.0268 367.491 32.0268 369.878 32.0268C371.064 32.0268 372.234 32.0268 373.451 32.0268C381.737 32.0424 390.007 32.0424 398.292 32.0268C408.388 32.0268 418.484 32.0268 428.595 32.058C433.744 32.0736 438.893 32.0892 444.043 32.0736C449.613 32.058 455.199 32.0892 460.786 32.1048C462.408 32.1048 464.031 32.0892 465.716 32.0892C477.154 32.1828 484.862 33.556 493.663 41.3891C497.891 46.2418 498.734 48.4888 498.749 54.7303C498.765 56.0878 498.765 57.4453 498.781 58.8341C498.781 60.332 498.781 61.8144 498.781 63.3591C498.796 65.7309 498.796 65.7309 498.812 68.1495C498.827 73.486 498.843 78.8069 498.859 84.1434C498.874 87.9507 498.89 91.758 498.905 95.5653C498.952 107.018 498.983 118.472 499.015 129.925C499.015 133.17 499.03 136.4 499.03 139.63C499.077 159.728 499.124 179.81 499.155 199.908C499.155 204.558 499.155 209.207 499.171 213.873C499.171 215.028 499.171 216.182 499.171 217.368C499.202 236.108 499.264 254.848 499.342 273.573C499.42 292.812 499.467 312.036 499.483 331.276C499.483 342.073 499.514 352.871 499.576 363.669C499.639 373.827 499.639 384.001 499.623 394.159C499.623 397.888 499.639 401.617 499.67 405.347C499.717 410.434 499.701 415.536 499.67 420.623C499.701 422.09 499.717 423.572 499.748 425.086C499.623 434.229 497.798 439.847 491.775 446.822C483.083 455.232 473.893 454.686 462.486 454.639C459.849 454.639 459.849 454.639 457.165 454.655C451.298 454.686 445.431 454.686 439.549 454.67C435.351 454.686 431.138 454.701 426.925 454.717C416.689 454.748 406.438 454.748 396.186 454.748C387.854 454.748 379.521 454.748 371.204 454.764C368.801 454.764 366.398 454.764 363.995 454.779C362.201 454.779 362.201 454.779 360.375 454.779C337.781 454.811 315.187 454.811 292.593 454.795C271.933 454.795 251.274 454.826 230.614 454.873C209.393 454.92 188.172 454.951 166.951 454.935C155.03 454.935 143.124 454.951 131.203 454.982C121.076 455.013 110.934 455.029 100.791 454.998C95.6107 454.982 90.4459 454.982 85.2654 455.014C79.6637 455.045 74.0463 455.013 68.429 454.982C66.8062 455.013 65.1834 455.029 63.5138 455.045C53.1529 454.92 46.1 453.157 38.2201 446.213C30.9955 438.349 31.0892 431.265 31.1984 421.107C31.1828 419.531 31.1672 417.955 31.1672 416.316C31.136 411.027 31.1516 405.737 31.1828 400.447C31.1672 396.64 31.1516 392.848 31.136 389.056C31.1204 379.819 31.1204 370.566 31.136 361.329C31.1516 353.823 31.1516 346.318 31.1516 338.797C31.1516 337.736 31.1516 336.659 31.1516 335.567C31.136 333.382 31.136 331.213 31.136 329.044C31.1204 308.666 31.136 288.303 31.1828 267.924C31.1984 250.464 31.1984 232.988 31.1672 215.527C31.136 195.227 31.1204 174.926 31.136 154.641C31.1516 152.472 31.1516 150.303 31.1516 148.134C31.1516 146.543 31.1516 146.543 31.1516 144.904C31.1516 137.415 31.1516 129.909 31.136 122.419C31.1204 112.308 31.1204 102.213 31.1672 92.1169C31.1672 88.4188 31.1672 84.7051 31.1516 80.9914C31.136 75.9358 31.1672 70.8802 31.1984 65.8245C31.1828 64.3578 31.1672 62.891 31.1516 61.3775C31.2608 52.062 32.3687 46.3354 38.2201 38.9549C47.3171 31.7927 57.2255 31.824 68.3665 31.9332Z" fill="#1C1F2A"/>
<path d="M387.749 82.6473C389.746 86.6419 389.138 88.4987 388.467 92.8834C388.123 95.0991 388.123 95.0991 387.78 97.3773C387.53 99.0001 387.265 100.623 387 102.292C386.75 103.962 386.485 105.647 386.22 107.379C385.377 112.856 384.519 118.333 383.661 123.81C383.068 127.524 382.49 131.253 381.913 134.982C371.755 199.878 371.755 199.878 367.464 216.84C368.946 216.824 368.946 216.824 370.46 216.793C380.712 216.652 390.948 216.559 401.199 216.496C405.038 216.465 408.861 216.418 412.684 216.372C418.192 216.294 423.684 216.262 429.177 216.231C430.893 216.2 432.61 216.169 434.373 216.137C435.98 216.137 437.572 216.137 439.21 216.137C441.317 216.106 441.317 216.106 443.454 216.091C447.043 216.84 447.043 216.84 449.836 219.758C452.192 223.908 452.395 226.171 451.724 230.883C449.977 234.097 449.977 234.097 447.402 237.468C442.206 244.521 437.275 251.667 432.454 258.97C430.878 261.342 429.286 263.713 427.71 266.085C426.899 267.318 426.072 268.566 425.229 269.83C409.173 294.016 392.992 318.108 376.733 342.153C360.411 366.292 340.307 395.518 324.5 420C324.5 420 327.019 406.379 328.033 401.151C328.314 399.638 328.595 398.124 328.891 396.564C329.219 394.925 329.547 393.287 329.875 391.602C330.202 389.885 330.53 388.185 330.873 386.421C331.934 380.866 333.026 375.311 334.103 369.757C335.195 364.092 336.288 358.428 337.38 352.764C338.098 349.035 338.8 345.305 339.533 341.576C343.325 321.884 346.836 302.13 350.3 282.375C349.332 282.391 348.365 282.407 347.382 282.422C337.364 282.563 327.331 282.656 317.313 282.719C313.569 282.75 309.824 282.797 306.079 282.844C300.711 282.922 295.328 282.953 289.96 282.984C287.448 283.031 287.448 283.031 284.889 283.078C282.548 283.078 282.548 283.078 280.145 283.078C278.772 283.093 277.415 283.109 275.995 283.124C271.017 282.126 269.16 280.051 266.04 276.134C265.056 269.128 266.305 265.211 270.221 259.438C271.142 258.049 272.063 256.676 273.014 255.256C274.029 253.774 275.043 252.291 276.088 250.778C278.242 247.563 280.379 244.365 282.533 241.15C283.672 239.465 284.795 237.796 285.966 236.079C289.476 230.852 292.925 225.593 296.358 220.319C296.935 219.445 297.497 218.572 298.09 217.667C299.79 215.045 301.491 212.439 303.192 209.818C309.917 199.504 316.689 189.205 323.539 178.969C331.809 166.58 339.986 154.113 348.147 141.645C375.016 100.638 375.016 100.638 387.749 82.6473Z" fill="#FC6211"/>
<path d="M106.881 85.7681C113.825 91.1826 119.708 97.4865 125.699 103.9C128.134 106.459 130.583 109.002 133.033 111.53C134.609 113.184 136.201 114.838 137.777 116.492C142.895 121.844 148.216 126.79 153.864 131.565C159.497 136.48 164.709 141.817 169.983 147.106C171.106 148.23 172.214 149.338 173.385 150.493C174.446 151.554 175.507 152.63 176.599 153.722C177.566 154.69 178.518 155.642 179.501 156.64C182.622 160.026 183.309 161.883 183.824 166.518C182.606 179.25 170.139 188.534 161.619 197.163C160.87 197.928 160.121 198.693 159.341 199.488C155.378 203.53 151.383 207.555 147.404 211.566C143.301 215.701 139.228 219.882 135.171 224.064C132.035 227.279 128.851 230.477 125.684 233.676C124.17 235.205 122.672 236.734 121.174 238.279C107.193 252.775 107.193 252.775 95.7871 253.196C90.9031 252.416 88.2973 250.045 85.0361 246.487C82.4615 241.338 82.2898 236.407 83.4757 230.883C85.5354 227.887 85.5354 227.887 88.2505 224.938C89.2491 223.861 90.2478 222.769 91.262 221.661C96.1148 216.606 101.077 211.69 106.101 206.822C108.286 204.684 110.455 202.547 112.624 200.409C116.025 197.085 119.411 193.777 122.828 190.485C126.136 187.271 129.429 184.025 132.721 180.779C133.751 179.796 134.796 178.813 135.858 177.783C136.778 176.863 137.714 175.942 138.682 174.975C139.509 174.179 140.336 173.368 141.194 172.525C143.098 170.075 143.098 170.075 142.474 166.861C140.398 161.821 136.45 158.435 132.628 154.69C131.754 153.816 130.88 152.958 129.991 152.068C128.149 150.227 126.292 148.402 124.451 146.576C121.643 143.83 118.865 141.068 116.088 138.29C107.833 130.098 99.5788 121.984 90.6066 114.573C86.8149 111.046 83.8658 107.754 82.6955 102.651C82.5083 95.6453 82.836 92.8366 87.283 87.1412C93.6806 82.9126 99.8909 83.0843 106.881 85.7681Z" fill="#FCFCFC"/>
<path d="M190.124 223.77C191.747 223.77 191.747 223.77 193.401 223.785C195.679 223.801 197.957 223.832 200.235 223.879C203.715 223.957 207.194 223.973 210.674 223.988C229.679 224.176 229.679 224.176 234.829 227.764C238.714 233.6 238.667 236.456 237.949 243.368C235.156 247.659 233.19 250.421 228.587 252.73C221.55 253.167 214.497 253.214 207.444 253.277C205.103 253.308 202.763 253.339 200.407 253.401C197.021 253.495 193.635 253.526 190.233 253.542C187.19 253.589 187.19 253.589 184.085 253.635C177.313 252.496 175.082 250.203 170.853 244.929C169.823 241.714 169.823 241.714 169.886 238.687C169.854 237.688 169.839 236.69 169.823 235.66C173.069 225.564 180.481 223.676 190.124 223.77Z" fill="#F8F8F8"/>
</g>
<defs>
<clipPath id="clip0_5_59">
<rect width="531" height="487" fill="white"/>
</clipPath>
</defs>
</svg>
