<svg width="540" height="540" viewBox="0 0 540 540" fill="none" xmlns="http://www.w3.org/2000/svg">
<path d="M0.749492 475.854C0.749492 473.709 0.76536 218.869 0.749492 216.672C0.654283 196.532 0.590777 176.41 0.543173 156.271C0.511436 145.907 0.479673 135.56 0.432068 125.214C0.384463 115.213 0.352721 105.23 0.336853 95.2295C0.320985 91.4231 0.305176 87.6166 0.289308 83.8102C0.257571 78.4639 0.2417 73.1176 0.2417 67.7713C0.225832 65.4183 0.225767 65.4183 0.194031 63.0306C0.273372 44.6041 6.16052 29.4649 17.6491 15.9348C30.0739 3.42556 42.8638 0.639945 59.3667 0.795662C62.1437 0.77836 62.1436 0.778364 64.9999 0.761062C70.1253 0.74376 75.2508 0.74376 80.3921 0.761062C85.9301 0.778364 91.484 0.761055 97.022 0.743753C107.876 0.70915 118.73 0.70915 129.584 0.743753C138.407 0.743753 147.229 0.761055 156.052 0.743753C157.925 0.743753 157.925 0.743753 159.861 0.743753C162.415 0.743753 164.97 0.743753 167.525 0.743753C191.454 0.70915 215.399 0.743758 239.329 0.778362C259.846 0.812966 280.364 0.795666 300.897 0.761062C324.747 0.726458 348.597 0.726452 372.447 0.743753C374.986 0.743753 377.541 0.743753 380.079 0.743753C381.952 0.743753 381.952 0.743753 383.872 0.743753C392.679 0.761055 401.486 0.743755 410.293 0.726453C421.035 0.709151 431.778 0.70915 442.521 0.743753C447.995 0.761055 453.47 0.778364 458.944 0.761062C464.879 0.726458 470.83 0.761058 476.78 0.795662C478.494 0.77836 480.208 0.761055 481.969 0.743753C499.488 0.934074 511.532 6.92053 524.131 20.07C536.001 34.0153 539.206 47.58 539.142 66.2661C539.158 68.0655 539.158 69.8649 539.174 71.7162C539.19 77.7373 539.19 83.7583 539.19 89.7967C539.19 94.1049 539.206 98.4303 539.222 102.756C539.238 113.275 539.253 123.778 539.253 134.297C539.253 142.862 539.253 151.409 539.269 159.956C539.301 184.231 539.317 208.488 539.317 232.762C539.317 234.717 539.317 234.717 539.317 236.724C539.317 238.022 539.317 239.337 539.317 240.687C539.301 261.899 539.333 283.094 539.38 304.306C539.428 326.106 539.444 347.889 539.444 369.69C539.444 381.905 539.46 394.137 539.491 406.37C539.523 417.875 539.523 429.364 539.491 440.87C539.491 445.091 539.507 449.313 539.523 453.517C539.539 459.296 539.523 465.058 539.507 470.819C539.523 472.48 539.539 474.141 539.555 475.854C539.38 495.388 532.049 510.32 519.672 524.196C506.105 536.618 489.649 538.816 472.512 538.695C470.703 538.712 468.894 538.712 467.037 538.729C461.007 538.746 454.977 538.746 448.947 538.729C444.615 538.729 440.283 538.746 435.951 538.764C425.415 538.798 414.879 538.798 404.342 538.781C395.773 538.781 387.204 538.781 378.651 538.798C377.429 538.798 376.208 538.798 374.938 538.798C372.463 538.798 369.971 538.798 367.496 538.798C344.249 538.833 321.002 538.816 297.755 538.798C276.508 538.781 255.276 538.798 234.029 538.85C212.178 538.885 190.344 538.902 168.493 538.885C156.243 538.885 143.992 538.885 131.742 538.919C121.316 538.954 110.891 538.954 100.465 538.919C95.1496 538.902 89.8337 538.902 84.5178 538.919C78.7418 538.954 72.9657 538.937 67.1897 538.902C65.5394 538.92 63.8732 538.937 62.1594 538.954C45.4978 538.764 27.3722 536.916 15.1854 524.199C4.12814 510.732 0.749492 503.409 0.749492 475.854Z" fill="#FD6111"/>
<path d="M69.5253 35.4085C72.1912 35.3912 72.1912 35.3912 74.9205 35.3739C80.8552 35.3566 86.8058 35.3739 92.7405 35.4085C97.0091 35.4085 101.278 35.3912 105.546 35.3739C115.924 35.3566 126.302 35.3739 136.68 35.3912C148.771 35.4258 160.863 35.4258 172.954 35.4085C194.519 35.4085 216.1 35.4258 237.681 35.4604C258.595 35.5123 279.525 35.5296 300.456 35.5123C323.258 35.4777 346.061 35.4777 368.848 35.5123C371.291 35.5123 373.719 35.5123 376.147 35.5123C377.353 35.5123 378.543 35.5123 379.781 35.5123C388.207 35.5296 396.617 35.5296 405.043 35.5123C415.31 35.5123 425.577 35.5123 435.859 35.5469C441.096 35.5642 446.332 35.5815 451.569 35.5642C457.234 35.5469 462.915 35.5815 468.595 35.5988C470.246 35.5988 471.896 35.5815 473.61 35.5815C485.241 35.6853 493.08 37.2079 502.03 45.8934C506.33 51.2743 507.187 53.7658 507.203 60.6866C507.219 62.1918 507.219 63.6971 507.235 65.237C507.235 66.8979 507.235 68.5416 507.235 70.2545C507.25 72.8844 507.25 72.8844 507.266 75.5662C507.282 81.4835 507.298 87.3834 507.314 93.3007C507.33 97.5223 507.346 101.744 507.362 105.966C507.409 118.665 507.441 131.365 507.473 144.064C507.473 147.663 507.488 151.245 507.488 154.826C507.536 177.111 507.584 199.379 507.615 221.664C507.615 226.819 507.615 231.975 507.631 237.149C507.631 238.429 507.631 239.709 507.631 241.024C507.663 261.804 507.726 282.584 507.806 303.346C507.885 324.679 507.933 345.995 507.949 367.328C507.949 379.301 507.98 391.274 508.044 403.247C508.107 414.511 508.107 425.791 508.091 437.055C508.091 441.19 508.107 445.325 508.139 449.46C508.187 455.101 508.171 460.759 508.139 466.399C508.171 468.025 508.187 469.669 508.218 471.347C508.091 481.486 506.235 487.715 500.11 495.449C491.271 504.775 481.925 504.169 470.325 504.117C467.643 504.117 467.643 504.117 464.914 504.135C458.948 504.169 452.981 504.169 446.999 504.152C442.73 504.169 438.446 504.186 434.161 504.204C423.752 504.238 413.326 504.238 402.901 504.238C394.427 504.238 385.954 504.238 377.496 504.256C375.052 504.256 372.609 504.256 370.165 504.273C368.34 504.273 368.34 504.273 366.483 504.273C343.506 504.308 320.529 504.308 297.552 504.29C276.542 504.29 255.533 504.325 234.523 504.377C212.942 504.429 191.362 504.463 169.781 504.446C157.657 504.446 145.55 504.463 133.427 504.498C123.128 504.532 112.814 504.55 102.499 504.515C97.2312 504.498 91.9788 504.498 86.7106 504.532C81.0139 504.567 75.3013 504.532 69.5888 504.498C67.9385 504.532 66.2882 504.55 64.5903 504.567C54.0538 504.429 46.8813 502.474 38.8679 494.774C31.5209 486.054 31.6161 478.199 31.7272 466.935C31.7113 465.188 31.6954 463.44 31.6954 461.624C31.6637 455.758 31.6796 449.893 31.7113 444.028C31.6954 439.806 31.6796 435.602 31.6637 431.397C31.6478 421.155 31.6478 410.895 31.6637 400.652C31.6796 392.33 31.6796 384.007 31.6796 375.668C31.6796 374.491 31.6796 373.297 31.6796 372.086C31.6637 369.664 31.6637 367.259 31.6637 364.854C31.6478 342.258 31.6637 319.679 31.7113 297.083C31.7272 277.722 31.7272 258.344 31.6954 238.983C31.6637 216.473 31.6478 193.963 31.6637 171.471C31.6796 169.066 31.6796 166.661 31.6796 164.256C31.6796 162.491 31.6796 162.491 31.6796 160.674C31.6796 152.369 31.6796 144.047 31.6637 135.742C31.6478 124.531 31.6478 113.336 31.6954 102.142C31.6954 98.0414 31.6954 93.9235 31.6796 89.8057C31.6637 84.1999 31.6954 78.594 31.7272 72.9882C31.7113 71.3618 31.6954 69.7355 31.6796 68.0572C31.7906 57.7279 32.9173 51.3781 38.8679 43.1943C48.1191 35.2528 58.1954 35.2874 69.5253 35.4085Z" fill="#1C1F2A"/>
<path d="M394.321 91.6417C396.352 96.071 395.733 98.1299 395.051 102.992C394.702 105.449 394.702 105.449 394.353 107.975C394.099 109.774 393.829 111.574 393.559 113.425C393.305 115.276 393.036 117.145 392.766 119.065C391.909 125.138 391.036 131.211 390.163 137.284C389.56 141.402 388.973 145.537 388.386 149.672C378.056 221.631 378.056 221.631 373.692 240.438C375.2 240.421 375.2 240.421 376.739 240.386C387.164 240.231 397.574 240.127 407.999 240.058C411.903 240.023 415.791 239.971 419.678 239.919C425.28 239.833 430.865 239.798 436.451 239.763C438.197 239.729 439.942 239.694 441.735 239.66C443.37 239.66 444.988 239.66 446.654 239.66C448.796 239.625 448.796 239.625 450.97 239.608C454.62 240.438 454.62 240.438 457.461 243.674C459.857 248.276 460.063 250.785 459.381 256.01C457.603 259.574 457.603 259.574 454.985 263.311C449.701 271.132 444.687 279.056 439.783 287.153C438.181 289.783 436.562 292.413 434.959 295.043C434.134 296.41 433.293 297.794 432.436 299.195C416.108 326.013 399.653 352.728 383.118 379.39C366.52 406.156 346.075 438.562 330 465.708C330 465.708 332.562 450.604 333.593 444.808C333.879 443.13 334.164 441.452 334.466 439.722C334.799 437.905 335.132 436.088 335.466 434.22C335.799 432.316 336.132 430.43 336.481 428.475C337.56 422.316 338.671 416.156 339.766 409.997C340.877 403.716 341.987 397.436 343.098 391.155C343.828 387.02 344.542 382.885 345.288 378.75C349.144 356.915 352.714 335.01 356.237 313.106C355.253 313.123 354.269 313.141 353.27 313.158C343.082 313.314 332.879 313.418 322.692 313.487C318.883 313.521 315.075 313.573 311.267 313.625C305.808 313.712 300.333 313.746 294.875 313.781C292.32 313.833 292.32 313.833 289.718 313.885C287.337 313.885 287.337 313.885 284.894 313.885C283.497 313.902 282.117 313.919 280.673 313.937C275.611 312.829 273.722 310.528 270.549 306.185C269.549 298.417 270.818 294.074 274.801 287.672C275.738 286.133 276.674 284.61 277.642 283.035C278.673 281.392 279.705 279.748 280.768 278.07C282.958 274.506 285.132 270.959 287.321 267.395C288.48 265.526 289.622 263.675 290.812 261.771C294.383 255.975 297.89 250.145 301.381 244.296C301.968 243.328 302.539 242.359 303.142 241.355C304.872 238.448 306.601 235.559 308.331 232.652C315.17 221.216 322.057 209.796 329.023 198.446C337.433 184.709 345.748 170.884 354.047 157.06C381.372 111.591 381.372 111.591 394.321 91.6417Z" fill="#FC6211"/>
<path d="M108.693 95.1022C115.754 101.106 121.737 108.096 127.83 115.207C130.305 118.044 132.797 120.865 135.288 123.668C136.891 125.502 138.509 127.336 140.112 129.17C145.317 135.104 150.728 140.589 156.472 145.883C162.201 151.333 167.501 157.251 172.864 163.116C174.007 164.362 175.133 165.59 176.323 166.87C177.402 168.047 178.481 169.241 179.592 170.452C180.576 171.525 181.544 172.58 182.544 173.687C185.717 177.442 186.415 179.501 186.939 184.64C185.701 198.758 173.023 209.053 164.359 218.621C163.597 219.468 162.835 220.316 162.042 221.198C158.011 225.68 153.949 230.144 149.903 234.59C145.729 239.175 141.588 243.812 137.462 248.449C134.272 252.013 131.035 255.56 127.814 259.107C126.275 260.803 124.752 262.498 123.228 264.211C109.01 280.285 109.01 280.285 97.4106 280.752C92.4438 279.887 89.7938 277.257 86.4774 273.312C83.8591 267.602 83.6846 262.135 84.8906 256.01C86.9852 252.688 86.9852 252.688 89.7462 249.418C90.7618 248.224 91.7774 247.013 92.8088 245.785C97.7438 240.179 102.79 234.729 107.899 229.33C110.121 226.96 112.327 224.59 114.532 222.219C117.992 218.534 121.435 214.866 124.91 211.215C128.274 207.651 131.622 204.052 134.971 200.454C136.018 199.363 137.081 198.273 138.16 197.132C139.096 196.111 140.049 195.09 141.032 194.017C141.873 193.135 142.714 192.235 143.587 191.301C145.523 188.584 145.523 188.584 144.888 185.02C142.778 179.432 138.763 175.677 134.875 171.525C133.987 170.556 133.098 169.604 132.194 168.618C130.321 166.576 128.433 164.552 126.561 162.528C123.704 159.483 120.88 156.42 118.055 153.34C109.661 144.257 101.267 135.26 92.1423 127.041C88.2864 123.131 85.2873 119.481 84.0971 113.823C83.9067 106.054 84.24 102.94 88.7624 96.6247C95.2684 91.9359 101.584 92.1262 108.693 95.1022Z" fill="#FCFCFC"/>
<path d="M193.346 248.123C194.996 248.123 194.996 248.123 196.678 248.14C198.995 248.157 201.312 248.192 203.629 248.244C207.167 248.33 210.706 248.348 214.245 248.365C233.572 248.573 233.572 248.573 238.809 252.552C242.76 259.023 242.712 262.189 241.982 269.854C239.142 274.612 237.142 277.674 232.461 280.235C225.305 280.72 218.132 280.771 210.96 280.841C208.58 280.875 206.199 280.91 203.803 280.979C200.36 281.083 196.917 281.117 193.457 281.135C190.363 281.187 190.363 281.187 187.205 281.239C180.318 279.976 178.049 277.432 173.749 271.584C172.702 268.02 172.702 268.02 172.765 264.663C172.733 263.556 172.717 262.449 172.702 261.307C176.002 250.112 183.54 248.019 193.346 248.123Z" fill="#F8F8F8"/>
</svg>
