<svg width="3581" height="969" viewBox="0 0 3581 969" fill="none" xmlns="http://www.w3.org/2000/svg">
<path d="M792.969 195.187C798.243 197.091 800.708 199.119 804.516 203.192C806.326 205.096 806.326 205.096 808.167 207.046C812.099 211.415 815.969 215.815 819.823 220.262C822.834 223.695 825.877 227.081 828.998 230.405C829.965 231.45 830.933 232.496 831.931 233.572C834.927 236.053 834.927 236.053 838.657 236.88C845.522 235.211 849.033 230.124 853.574 224.944C855.025 223.336 855.025 223.336 856.507 221.698C859.254 218.64 861.984 215.55 864.684 212.461C865.901 211.072 867.118 209.699 868.382 208.279C870.114 206.313 871.83 204.331 873.531 202.334C874.218 201.554 874.904 200.773 875.606 199.978C876.745 198.667 876.745 198.667 877.9 197.341C880.287 195.296 880.287 195.296 885.561 195C891.928 197.091 891.928 197.091 894.815 202.037C895.47 203.161 896.125 204.284 896.812 205.439C897.545 206.734 898.263 208.014 899.012 209.34C899.855 210.775 900.682 212.227 901.54 213.725C904.27 218.484 906.97 223.274 909.654 228.064C910.574 229.718 911.511 231.372 912.478 233.073C914.756 237.13 917.034 241.172 919.297 245.228C925.897 245.603 929.486 245.525 934.542 241.172C935.572 240.313 936.601 239.455 937.647 238.566C938.708 237.645 939.769 236.709 940.861 235.757C943.077 233.9 945.293 232.043 947.508 230.186C951.019 227.191 954.515 224.179 957.994 221.152C963.409 216.642 966.639 214.239 973.629 212.741C978.591 214.021 978.591 214.021 981.852 218.14C984.864 223.414 986.331 227.737 987.672 233.635C988.125 235.539 988.577 237.458 989.046 239.424C989.498 241.406 989.935 243.387 990.403 245.416C991.293 249.363 992.213 253.296 993.134 257.228C993.524 258.975 993.93 260.707 994.335 262.502C995.74 267.011 997.362 269.758 1000.44 273.315C1007.32 272.457 1012.44 270.756 1018.52 267.495C1020.14 266.668 1021.75 265.825 1023.41 264.952C1026.76 263.173 1030.1 261.394 1033.44 259.6C1049.54 251.236 1049.54 251.236 1058.17 253.03C1062.59 256.401 1064.24 258.242 1065.22 263.766C1065.24 265.467 1065.25 267.183 1065.25 268.946C1065.3 270.834 1065.33 272.722 1065.36 274.657C1065.38 276.623 1065.38 278.589 1065.39 280.618C1065.52 293.21 1065.8 304.819 1069.09 317.006C1079.94 317.474 1089.88 315.227 1100.44 312.98C1122.83 308.424 1122.83 308.424 1130.84 313.105C1136.33 322.654 1132.18 335.574 1130.06 345.764C1127.97 355.937 1126.28 365.955 1125.27 376.3C1130.92 380.061 1133.99 379.951 1140.71 380.232C1142.87 380.341 1145.02 380.466 1147.17 380.576C1150.56 380.732 1153.95 380.872 1157.33 381.028C1160.61 381.168 1163.87 381.34 1167.15 381.512C1169.1 381.59 1171.06 381.683 1173.08 381.761C1178.62 382.573 1181.72 383.805 1186.12 387.223C1187.92 392.497 1188.07 395.43 1186.29 400.704C1185.53 402.109 1184.76 403.513 1183.98 404.964C1183.13 406.571 1182.28 408.194 1181.39 409.848C1179.19 413.827 1176.88 417.759 1174.57 421.691C1173.93 422.784 1173.29 423.876 1172.64 424.999C1171.39 427.137 1170.11 429.275 1168.8 431.381C1164.76 438.247 1163.59 443.022 1164.28 451.198C1175.37 455.068 1186.53 458.064 1197.93 460.841C1199.65 461.278 1201.38 461.699 1203.14 462.136C1207.36 463.182 1211.57 464.212 1215.77 465.241C1215.77 463.307 1215.75 461.387 1215.74 459.406C1215.64 441.243 1215.58 423.096 1215.53 404.933C1215.5 395.586 1215.47 386.255 1215.42 376.924C1215.38 367.905 1215.35 358.902 1215.33 349.883C1215.32 346.45 1215.3 343.017 1215.28 339.584C1215.25 334.763 1215.24 329.941 1215.24 325.12C1215.22 322.998 1215.22 322.998 1215.19 320.844C1215.27 304.226 1221.06 290.573 1232.35 278.371C1244.57 267.089 1257.15 264.577 1273.38 264.718C1276.11 264.702 1276.11 264.702 1278.92 264.686C1283.96 264.671 1289 264.671 1294.05 264.686C1299.5 264.702 1304.96 264.686 1310.41 264.671C1321.08 264.64 1331.75 264.64 1342.42 264.671C1351.1 264.671 1359.78 264.686 1368.45 264.671C1370.29 264.671 1370.29 264.671 1372.2 264.671C1374.71 264.671 1377.22 264.671 1379.73 264.671C1403.26 264.64 1426.81 264.671 1450.34 264.702C1470.52 264.733 1490.69 264.718 1510.88 264.686C1534.33 264.655 1557.79 264.655 1581.24 264.671C1583.74 264.671 1586.25 264.671 1588.74 264.671C1590.59 264.671 1590.59 264.671 1592.47 264.671C1601.13 264.686 1609.79 264.671 1618.45 264.655C1629.02 264.64 1639.58 264.64 1650.15 264.671C1655.53 264.686 1660.91 264.702 1666.3 264.686C1672.13 264.655 1677.98 264.686 1683.83 264.718C1685.52 264.702 1687.2 264.686 1688.94 264.671C1706.16 264.842 1718.01 270.241 1730.4 282.1C1742.07 294.677 1745.22 306.91 1745.16 323.762C1745.17 325.385 1745.17 327.008 1745.19 328.677C1745.2 334.108 1745.2 339.538 1745.2 344.983C1745.2 348.869 1745.22 352.77 1745.23 356.671C1745.25 366.158 1745.27 375.629 1745.27 385.116C1745.27 392.84 1745.27 400.548 1745.28 408.257C1745.31 430.149 1745.33 452.025 1745.33 473.917C1745.33 475.68 1745.33 475.68 1745.33 477.49C1745.33 478.661 1745.33 479.847 1745.33 481.064C1745.31 500.194 1745.34 519.308 1745.39 538.439C1745.44 558.099 1745.45 577.745 1745.45 597.405C1745.45 608.422 1745.47 619.453 1745.5 630.485C1745.53 640.862 1745.53 651.223 1745.5 661.599C1745.5 665.406 1745.52 669.214 1745.53 673.006C1745.55 678.217 1745.53 683.413 1745.52 688.609C1745.53 690.107 1745.55 691.605 1745.56 693.15C1745.39 710.767 1738.18 724.233 1726.01 736.747C1712.67 747.95 1696.49 749.932 1679.64 749.823C1677.86 749.838 1676.08 749.838 1674.25 749.854C1668.32 749.87 1662.39 749.87 1656.47 749.854C1652.21 749.854 1647.95 749.87 1643.69 749.885C1633.32 749.916 1622.96 749.916 1612.6 749.901C1604.18 749.901 1595.75 749.901 1587.34 749.916C1586.14 749.916 1584.94 749.916 1583.69 749.916C1581.26 749.916 1578.81 749.916 1576.37 749.916C1553.51 749.948 1530.65 749.932 1507.79 749.916C1486.9 749.901 1466.02 749.916 1445.13 749.963C1423.64 749.994 1402.17 750.01 1380.68 749.994C1368.64 749.994 1356.59 749.994 1344.55 750.026C1334.29 750.057 1324.04 750.057 1313.79 750.026C1308.56 750.01 1303.34 750.01 1298.11 750.026C1292.43 750.057 1286.75 750.041 1281.07 750.01C1279.45 750.026 1277.81 750.041 1276.12 750.057C1259.74 749.885 1244.92 745.095 1232.93 733.626C1221.87 721.268 1221.87 721.268 1220.45 713.341C1214.63 718.085 1209.29 722.782 1204.41 728.508C1197.79 736.17 1190.86 743.503 1183.91 750.837C1179.55 755.44 1175.21 760.028 1171.19 764.943C1170.13 766.222 1169.08 767.502 1167.99 768.828C1167.13 769.92 1166.27 771.013 1165.4 772.152C1162.72 774.196 1162.72 774.196 1158.49 773.743C1157.32 773.385 1156.13 773.01 1154.91 772.635C1155.8 765.364 1158.99 759.934 1162.72 753.802C1163.73 752.132 1163.73 752.132 1164.74 750.416C1167.18 746.374 1169.63 742.333 1172.08 738.307C1173.65 735.717 1175.23 733.127 1176.81 730.537C1177.93 728.68 1179.04 726.838 1180.16 724.997C1183.06 720.223 1185.95 715.463 1188.82 710.689C1193.61 702.715 1198.4 694.788 1203.74 687.174C1215.75 669.588 1216.53 653.22 1215.77 632.202C1214.88 631.905 1213.97 631.624 1213.04 631.312C1205.92 629.003 1199.06 626.506 1192.27 623.323C1190.8 622.637 1189.34 621.95 1187.82 621.248C1186.76 620.749 1185.68 620.234 1184.56 619.719C1185.53 621.154 1185.53 621.154 1186.51 622.621C1198.37 640.409 1198.37 640.409 1197.04 649.366C1189.77 659.774 1179.6 668.605 1170.63 677.546C1169.28 678.888 1167.96 680.23 1166.59 681.603C1164.6 683.585 1164.6 683.585 1162.59 685.598C1161.4 686.768 1160.23 687.938 1159.03 689.14C1155.79 692.229 1152.49 695.163 1149.09 698.081C1141.74 704.463 1134.99 711.344 1128.18 718.303C1125.48 721.034 1122.79 723.765 1120.09 726.495C1115.89 730.755 1111.68 735.03 1107.49 739.306C1103.41 743.472 1099.32 747.607 1095.21 751.742C1093.97 753.037 1092.72 754.332 1091.42 755.659C1090.25 756.829 1089.07 758.015 1087.86 759.232C1086.32 760.808 1086.32 760.808 1084.74 762.399C1081.09 765.208 1078.31 765.832 1073.77 766.394C1072.4 761.807 1071.81 759.482 1073.85 755.05C1074.69 753.849 1075.55 752.647 1076.43 751.414C1077.36 750.057 1078.31 748.684 1079.3 747.279C1080.34 745.828 1081.39 744.377 1082.47 742.879C1083.53 741.366 1084.59 739.852 1085.7 738.292C1087.9 735.14 1090.13 731.988 1092.36 728.851C1096.29 723.328 1100.18 717.757 1104.06 712.202C1106.74 708.364 1109.43 704.541 1112.11 700.718C1117.65 692.807 1123.13 684.849 1128.59 676.86C1129.42 675.643 1130.24 674.425 1131.1 673.177C1135.44 666.826 1139.75 660.445 1143.99 654.047C1136.49 654.921 1129.93 656.466 1122.85 659.118C1120.9 659.852 1118.93 660.569 1116.98 661.287C1115.97 661.662 1114.95 662.036 1113.89 662.426C1092.76 670.259 1071.51 676.875 1049.62 682.321C1045.42 683.366 1041.24 684.443 1037.07 685.52C1018.96 690.216 1000.84 694.039 982.398 697.145C981.041 697.379 979.683 697.613 978.295 697.847C950.411 702.575 922.542 705.274 894.331 707.1C891.272 707.303 891.272 707.303 888.152 707.537C873.313 708.551 858.505 709.097 843.619 709.144C842.433 709.144 841.231 709.144 839.999 709.159C791.627 709.175 742.194 704.978 694.603 696.177C692.605 695.803 690.593 695.444 688.517 695.054C637.462 685.613 588.856 670.244 540.125 652.487C544.775 660.881 549.893 668.777 555.339 676.672C556.213 677.936 557.087 679.2 557.992 680.511C566.153 692.37 574.391 704.166 582.63 715.978C589.387 725.668 596.049 735.421 602.54 745.298C604.928 748.918 607.3 752.429 610.015 755.815C611.903 758.592 611.903 758.592 611.419 762.883C610.889 764.615 610.889 764.615 610.342 766.394C602.681 765.707 598.998 762.275 593.475 757.125C592.695 756.408 591.914 755.705 591.103 754.972C589.121 753.131 587.249 751.18 585.376 749.23L582 746L577.5 741.5C577.5 741.5 574.048 738.385 570.007 734.344C568.665 733.033 568.665 733.033 567.292 731.676C564.342 728.773 561.393 725.855 558.444 722.922C556.4 720.893 554.34 718.849 552.296 716.821C548.005 712.561 543.714 708.286 539.423 704.01C533.931 698.549 528.423 693.103 522.899 687.673C518.655 683.476 514.426 679.263 510.197 675.05C508.185 673.037 506.14 671.024 504.096 669.027C501.256 666.234 498.432 663.394 495.608 660.569C494.765 659.742 493.923 658.931 493.049 658.088C487.432 652.346 485.653 648.008 485.512 640.004C487.416 635.947 489.148 632.779 491.66 629.175C492.269 628.254 492.862 627.333 493.486 626.397C494.968 624.15 496.482 621.934 497.995 619.719C485.341 627.661 473.778 636.914 462.107 646.245C464.744 653.438 468.333 659.961 472.062 666.624C472.748 667.856 473.435 669.089 474.153 670.368C480.644 681.915 487.447 693.275 494.297 704.603C500.57 714.98 506.749 725.419 512.928 735.857C515.035 739.431 517.157 743.004 519.263 746.593C520.168 748.106 521.073 749.636 522.009 751.212C523.695 754.051 525.427 756.86 527.237 759.653C529.203 763.273 529.203 763.273 528.719 767.658C528.189 769.343 528.189 769.343 527.642 771.075C521.51 770.264 518.608 769.015 514.457 764.444C513.505 763.398 512.538 762.368 511.555 761.292C510.057 759.606 510.057 759.606 508.528 757.906C507.498 756.767 506.453 755.627 505.376 754.442C502.38 751.165 499.415 747.857 496.435 744.549C495.124 743.082 493.814 741.631 492.456 740.133C490.256 737.699 488.056 735.249 485.871 732.799C479.349 725.543 472.702 718.412 466.07 711.25C463.745 708.723 461.42 706.195 459.08 703.683C452.495 696.52 445.894 689.374 439.247 682.274C438.28 681.244 437.312 680.214 436.314 679.153C434.457 677.172 432.6 675.19 430.743 673.208C428.184 670.478 425.641 667.731 423.097 664.97C422.223 664.002 421.334 663.035 420.413 662.036C419.571 661.084 418.713 660.132 417.839 659.149C417.074 658.307 416.325 657.464 415.529 656.59C413.735 654.047 413.735 654.047 412.674 648.476C415.171 635.993 426.764 629.284 436.189 621.747C440.792 618.033 445.317 614.242 449.827 610.45C450.716 609.717 451.605 608.968 452.51 608.219C457.207 604.38 457.207 604.38 460.546 599.434C459.501 599.262 458.455 599.106 457.379 598.934C427.747 592.1 394.979 569.521 376.879 545.304C368.297 535.037 354.472 531.105 342.441 526.065C311.109 512.661 283.412 489.287 270.18 457.44C269.447 455.661 269.447 455.661 268.682 453.851C265.187 443.708 265.078 433.613 265.016 423.002C265.016 421.567 265 420.131 265 418.649C265.328 387.223 279.777 360.962 300.421 338.024C302.948 335.73 302.948 335.73 306.069 335.73C306.412 337.166 306.412 337.166 306.756 338.617C311.608 358.839 316.867 378.032 326.354 396.585C326.884 397.615 327.415 398.66 327.961 399.721C336.372 415.98 346.108 431.943 359.122 444.957C361.182 444.957 363.241 444.957 365.363 444.957C370.7 425.702 370.7 425.702 373.165 405.947C373.228 404.356 373.29 402.764 373.368 401.126C373.633 386.864 372.011 373.211 370.044 359.136C369.498 354.455 368.999 349.774 368.484 345.093C398.038 357.498 426.78 386.458 439.388 415.856C448.75 443.084 440.573 468.986 428.964 494.077C426.702 498.602 424.361 502.706 421.537 506.872C418.057 511.569 418.057 511.569 418.619 515.751C423.144 529.357 436.517 540.14 448.063 547.941C449.093 548.628 450.107 549.33 451.168 550.032C456.162 553.294 456.162 553.293 461.919 553.949C466.491 552.108 469.659 549.361 473.419 546.178C474.933 544.93 476.431 543.666 477.96 542.371C483.64 537.502 489.304 532.619 494.875 527.657C494.297 519.745 490.037 515.595 484.732 510.196C483.905 509.307 483.063 508.417 482.204 507.512C478.272 503.346 474.278 499.226 470.236 495.154C459.704 484.216 459.704 484.216 459.376 477.818C460.656 472.606 461.155 471.561 465.227 468.362C468.754 466.817 472.327 465.444 475.932 464.149C477.476 463.587 477.476 463.587 479.068 463.01C482.345 461.824 485.637 460.654 488.93 459.484C491.161 458.672 493.408 457.877 495.639 457.065C501.1 455.099 506.577 453.133 512.039 451.198C512.554 442.756 511.415 437.763 507.326 430.383C506.343 428.588 505.36 426.809 504.362 424.968C503.316 423.111 502.271 421.254 501.225 419.398C500.18 417.51 499.134 415.622 498.105 413.718C494.048 405.463 494.048 405.463 488.633 398.145C488.742 392.871 488.742 392.871 490.193 387.223C496.825 382.994 502.396 381.871 510.151 381.449C512.132 381.34 514.13 381.215 516.174 381.09C518.218 380.981 520.277 380.888 522.384 380.778C526.472 380.56 530.545 380.326 534.633 380.092C536.443 379.998 538.237 379.905 540.094 379.811C543.964 379.483 547.35 378.953 551.048 377.86C550.767 376.409 550.486 374.958 550.19 373.476C549.144 368.046 548.099 362.631 547.054 357.201C546.601 354.876 546.149 352.536 545.696 350.195C545.025 346.825 544.385 343.439 543.746 340.068C543.543 339.038 543.324 338.008 543.121 336.947C539.735 318.941 539.735 318.941 543.433 312.309C554.075 306.692 573.923 313.12 585.454 315.414C592.289 316.741 598.702 317.474 605.661 317.006C609.531 313.136 609.172 310.905 609.219 305.631C609.219 303.961 609.219 303.961 609.219 302.245C609.25 299.873 609.281 297.501 609.313 295.129C609.344 291.384 609.375 287.655 609.391 283.91C609.406 280.306 609.453 276.686 609.515 273.081C609.5 271.973 609.5 270.865 609.484 269.726C609.593 264.156 610.264 260.957 613.182 256.182C616.584 253.03 616.584 253.03 621.936 252.734C631.782 254.653 640.723 259.662 649.648 264.047C653.237 265.794 656.842 267.542 660.446 269.274C662.022 270.038 663.598 270.819 665.236 271.614C669.683 273.331 672.726 273.674 677.439 273.315C679.639 266.933 681.496 260.583 683.103 254.029C683.789 251.267 683.789 251.267 684.491 248.458C685.459 244.604 686.411 240.75 687.347 236.88C688.049 234.134 688.049 234.134 688.751 231.31C689.173 229.64 689.578 227.971 690 226.239C691.498 221.776 692.902 218.952 696.163 215.581C705.042 214.255 709.582 216.393 716.651 221.62C717.509 222.244 718.367 222.868 719.257 223.508C723.875 226.878 728.385 230.405 732.863 233.978C733.768 234.68 734.658 235.383 735.578 236.116C738.075 238.098 740.556 240.126 743.021 242.155C747.905 245.385 751.244 246.305 757.018 246.789C763.883 236.381 769.282 225.505 774.572 214.255C783.731 195.39 783.731 195.39 792.969 195.187Z" fill="#FD6111"/>
<path d="M1283.37 295.933C1285.99 295.918 1285.99 295.918 1288.67 295.902C1294.51 295.886 1300.36 295.902 1306.19 295.933C1310.39 295.933 1314.59 295.918 1318.79 295.902C1328.99 295.886 1339.2 295.902 1349.4 295.918C1361.29 295.949 1373.18 295.949 1385.07 295.933C1406.28 295.933 1427.5 295.949 1448.72 295.98C1469.29 296.027 1489.87 296.042 1510.45 296.027C1532.87 295.996 1555.29 295.996 1577.7 296.027C1580.1 296.027 1582.49 296.027 1584.88 296.027C1586.06 296.027 1587.23 296.027 1588.45 296.027C1596.74 296.042 1605.01 296.042 1613.29 296.027C1623.39 296.027 1633.48 296.027 1643.59 296.058C1648.74 296.074 1653.89 296.089 1659.04 296.074C1664.61 296.058 1670.2 296.089 1675.79 296.105C1677.41 296.105 1679.03 296.089 1680.72 296.089C1692.15 296.183 1699.86 297.556 1708.66 305.389C1712.89 310.242 1713.73 312.489 1713.75 318.73C1713.77 320.088 1713.77 321.445 1713.78 322.834C1713.78 324.332 1713.78 325.814 1713.78 327.359C1713.8 329.731 1713.8 329.731 1713.81 332.15C1713.83 337.486 1713.84 342.807 1713.86 348.143C1713.87 351.951 1713.89 355.758 1713.91 359.565C1713.95 371.018 1713.98 382.472 1714.01 393.925C1714.01 397.17 1714.03 400.4 1714.03 403.63C1714.08 423.728 1714.12 443.81 1714.16 463.908C1714.16 468.558 1714.16 473.207 1714.17 477.873C1714.17 479.028 1714.17 480.182 1714.17 481.368C1714.2 500.108 1714.26 518.848 1714.34 537.573C1714.42 556.812 1714.47 576.036 1714.48 595.276C1714.48 606.073 1714.51 616.871 1714.58 627.669C1714.64 637.827 1714.64 648.001 1714.62 658.159C1714.62 661.888 1714.64 665.617 1714.67 669.347C1714.72 674.434 1714.7 679.536 1714.67 684.623C1714.7 686.09 1714.72 687.572 1714.75 689.086C1714.62 698.229 1712.8 703.847 1706.77 710.822C1698.08 719.232 1688.89 718.686 1677.49 718.639C1674.85 718.639 1674.85 718.639 1672.17 718.655C1666.3 718.686 1660.43 718.686 1654.55 718.67C1650.35 718.686 1646.14 718.701 1641.93 718.717C1631.69 718.748 1621.44 718.748 1611.19 718.748C1602.85 718.748 1594.52 718.748 1586.2 718.764C1583.8 718.764 1581.4 718.764 1579 718.779C1577.2 718.779 1577.2 718.779 1575.38 718.779C1552.78 718.811 1530.19 718.811 1507.59 718.795C1486.93 718.795 1466.27 718.826 1445.61 718.873C1424.39 718.92 1403.17 718.951 1381.95 718.935C1370.03 718.935 1358.12 718.951 1346.2 718.982C1336.08 719.013 1325.93 719.029 1315.79 718.998C1310.61 718.982 1305.45 718.982 1300.27 719.014C1294.66 719.045 1289.05 719.013 1283.43 718.982C1281.81 719.013 1280.18 719.029 1278.51 719.045C1268.15 718.92 1261.1 717.157 1253.22 710.213C1246 702.349 1246.09 695.265 1246.2 685.107C1246.18 683.531 1246.17 681.955 1246.17 680.316C1246.14 675.027 1246.15 669.737 1246.18 664.447C1246.17 660.64 1246.15 656.848 1246.14 653.056C1246.12 643.819 1246.12 634.566 1246.14 625.329C1246.15 617.823 1246.15 610.318 1246.15 602.797C1246.15 601.736 1246.15 600.659 1246.15 599.567C1246.14 597.382 1246.14 595.213 1246.14 593.044C1246.12 572.666 1246.14 552.303 1246.18 531.924C1246.2 514.464 1246.2 496.988 1246.17 479.527C1246.14 459.227 1246.12 438.926 1246.14 418.641C1246.15 416.472 1246.15 414.303 1246.15 412.134C1246.15 410.543 1246.15 410.543 1246.15 408.904C1246.15 401.415 1246.15 393.909 1246.14 386.419C1246.12 376.308 1246.12 366.213 1246.17 356.117C1246.17 352.419 1246.17 348.705 1246.15 344.991C1246.14 339.936 1246.17 334.88 1246.2 329.825C1246.18 328.358 1246.17 326.891 1246.15 325.377C1246.26 316.062 1247.37 310.335 1253.22 302.955C1262.32 295.793 1272.23 295.824 1283.37 295.933Z" fill="#1C1F2A"/>
<path d="M1602.75 346.647C1604.75 350.642 1604.14 352.499 1603.47 356.883C1603.12 359.099 1603.12 359.099 1602.78 361.377C1602.53 363 1602.27 364.623 1602 366.292C1601.75 367.962 1601.48 369.647 1601.22 371.379C1600.38 376.856 1599.52 382.333 1598.66 387.81C1598.07 391.524 1597.49 395.253 1596.91 398.982C1586.75 463.878 1586.75 463.878 1582.46 480.84C1583.95 480.824 1583.95 480.824 1585.46 480.793C1595.71 480.652 1605.95 480.559 1616.2 480.496C1620.04 480.465 1623.86 480.418 1627.68 480.372C1633.19 480.294 1638.68 480.262 1644.18 480.231C1645.89 480.2 1647.61 480.169 1649.37 480.137C1650.98 480.137 1652.57 480.137 1654.21 480.137C1656.32 480.106 1656.32 480.106 1658.45 480.091C1662.04 480.84 1662.04 480.84 1664.84 483.758C1667.19 487.908 1667.4 490.171 1666.72 494.883C1664.98 498.097 1664.98 498.097 1662.4 501.468C1657.21 508.521 1652.28 515.667 1647.45 522.97C1645.88 525.342 1644.29 527.713 1642.71 530.085C1641.9 531.318 1641.07 532.566 1640.23 533.83C1624.17 558.016 1607.99 582.108 1591.73 606.153C1575.41 630.292 1555.31 659.518 1539.5 684C1539.5 684 1542.02 670.379 1543.03 665.151C1543.31 663.638 1543.59 662.124 1543.89 660.564C1544.22 658.925 1544.55 657.287 1544.87 655.602C1545.2 653.885 1545.53 652.185 1545.87 650.421C1546.93 644.866 1548.03 639.311 1549.1 633.757C1550.2 628.092 1551.29 622.428 1552.38 616.764C1553.1 613.035 1553.8 609.305 1554.53 605.576C1558.32 585.884 1561.84 566.13 1565.3 546.375C1564.33 546.391 1563.36 546.407 1562.38 546.422C1552.36 546.563 1542.33 546.656 1532.31 546.719C1528.57 546.75 1524.82 546.797 1521.08 546.844C1515.71 546.922 1510.33 546.953 1504.96 546.984C1502.45 547.031 1502.45 547.031 1499.89 547.078C1497.55 547.078 1497.55 547.078 1495.15 547.078C1493.77 547.093 1492.41 547.109 1490.99 547.124C1486.02 546.126 1484.16 544.051 1481.04 540.134C1480.06 533.128 1481.3 529.211 1485.22 523.438C1486.14 522.049 1487.06 520.676 1488.01 519.256C1489.03 517.774 1490.04 516.291 1491.09 514.778C1493.24 511.563 1495.38 508.365 1497.53 505.15C1498.67 503.465 1499.8 501.796 1500.97 500.079C1504.48 494.852 1507.92 489.593 1511.36 484.319C1511.93 483.445 1512.5 482.572 1513.09 481.667C1514.79 479.045 1516.49 476.439 1518.19 473.818C1524.92 463.504 1531.69 453.205 1538.54 442.969C1546.81 430.58 1554.99 418.113 1563.15 405.645C1590.02 364.638 1590.02 364.638 1602.75 346.647Z" fill="#FC6211"/>
<path d="M732.059 457.434C733.635 458.308 735.211 459.166 736.834 460.071C751.158 471.337 760.677 485.958 763.267 504.245C764.89 531.63 761.425 552.398 746.399 575.726C734.681 587.444 721.293 593.265 704.846 593.873C689.789 593.468 677.493 587.835 666.523 577.583C658.191 568.704 653.042 559.498 649.359 547.936C649 546.906 648.657 545.876 648.298 544.815C642.072 522.845 645.209 497.099 655.788 477.235C663.247 465.205 674.669 455.421 688.665 451.895C703.567 449.507 718.952 449.304 732.059 457.434Z" fill="#1D1F2A"/>
<path d="M995.275 463.285C1008.82 476.455 1016.11 493.978 1016.59 512.609C1016.86 537.591 1013.39 558.546 995.759 577.583C983.276 589.379 970.918 592.407 954.081 592.282C944.984 591.985 937.931 590.456 930.223 585.385C928.6 584.371 928.6 584.371 926.946 583.325C911.53 572.761 902.823 556.674 899.016 538.574C896.238 515.527 897.97 492.199 912.107 473.022C912.934 471.992 913.761 470.978 914.619 469.917C915.431 468.918 916.227 467.935 917.054 466.905C939.227 442.174 970.325 447.042 995.275 463.285Z" fill="#1D1F2A"/>
<path d="M1321.88 349.768C1328.83 355.183 1334.71 361.487 1340.7 367.9C1343.13 370.459 1345.58 373.002 1348.03 375.53C1349.61 377.184 1351.2 378.838 1352.78 380.492C1357.89 385.844 1363.22 390.79 1368.86 395.565C1374.5 400.48 1379.71 405.817 1384.98 411.106C1386.11 412.23 1387.21 413.338 1388.38 414.493C1389.45 415.554 1390.51 416.63 1391.6 417.722C1392.57 418.69 1393.52 419.642 1394.5 420.64C1397.62 424.026 1398.31 425.883 1398.82 430.518C1397.61 443.25 1385.14 452.534 1376.62 461.163C1375.87 461.928 1375.12 462.693 1374.34 463.488C1370.38 467.53 1366.38 471.555 1362.4 475.566C1358.3 479.701 1354.23 483.882 1350.17 488.064C1347.03 491.279 1343.85 494.477 1340.68 497.676C1339.17 499.205 1337.67 500.734 1336.17 502.279C1322.19 516.775 1322.19 516.775 1310.79 517.196C1305.9 516.416 1303.3 514.045 1300.04 510.487C1297.46 505.338 1297.29 500.407 1298.48 494.883C1300.54 491.887 1300.54 491.887 1303.25 488.938C1304.25 487.861 1305.25 486.769 1306.26 485.661C1311.11 480.606 1316.08 475.69 1321.1 470.822C1323.29 468.684 1325.45 466.547 1327.62 464.409C1331.03 461.085 1334.41 457.777 1337.83 454.485C1341.14 451.271 1344.43 448.025 1347.72 444.779C1348.75 443.796 1349.8 442.813 1350.86 441.783C1351.78 440.863 1352.71 439.942 1353.68 438.975C1354.51 438.179 1355.34 437.368 1356.19 436.525C1358.1 434.075 1358.1 434.075 1357.47 430.861C1355.4 425.821 1351.45 422.435 1347.63 418.69C1346.75 417.816 1345.88 416.958 1344.99 416.068C1343.15 414.227 1341.29 412.402 1339.45 410.576C1336.64 407.83 1333.87 405.068 1331.09 402.29C1322.83 394.098 1314.58 385.984 1305.61 378.573C1301.81 375.046 1298.87 371.754 1297.7 366.651C1297.51 359.645 1297.84 356.837 1302.28 351.141C1308.68 346.913 1314.89 347.084 1321.88 349.768Z" fill="#FCFCFC"/>
<path d="M774.189 605.67C812.294 605.67 850.398 605.67 889.657 605.67C887.722 621.164 882.558 631.432 870.449 641.465C868.046 643.119 865.612 644.726 863.131 646.24C861.492 647.254 861.492 647.254 859.807 648.284C850.991 652.699 842.3 653.074 832.61 653.168C831.377 653.183 830.129 653.199 828.865 653.214C811.951 652.965 799.842 646.817 787.968 635.098C779.229 625.736 774.189 618.839 774.189 605.67Z" fill="#1C1E29"/>
<path d="M1405.12 487.77C1406.75 487.77 1406.75 487.77 1408.4 487.786C1410.68 487.801 1412.96 487.832 1415.23 487.879C1418.71 487.957 1422.19 487.973 1425.67 487.988C1444.68 488.176 1444.68 488.176 1449.83 491.764C1453.71 497.6 1453.67 500.456 1452.95 507.368C1450.16 511.659 1448.19 514.421 1443.59 516.73C1436.55 517.167 1429.5 517.214 1422.44 517.277C1420.1 517.308 1417.76 517.339 1415.41 517.401C1412.02 517.495 1408.63 517.526 1405.23 517.542C1402.19 517.589 1402.19 517.589 1399.09 517.635C1392.31 516.496 1390.08 514.203 1385.85 508.929C1384.82 505.714 1384.82 505.714 1384.89 502.687C1384.85 501.688 1384.84 500.69 1384.82 499.66C1388.07 489.564 1395.48 487.676 1405.12 487.77Z" fill="#F8F8F8"/>
<path d="M980.159 480.84C985.73 484.226 988.663 487.331 991.082 493.323C992.205 502.935 992.143 511.735 986.401 519.849C982.281 524.078 979.831 525.857 974.011 526.964C967.458 525.763 964.493 523.017 959.874 518.289C955.864 510.144 955.661 502.232 956.753 493.323C962.09 482.837 968.394 478.952 980.159 480.84Z" fill="#FAF9FA"/>
<path d="M727.378 480.84C732.886 484.257 735.929 487.331 738.301 493.323C738.769 497.754 738.769 497.754 738.784 502.591C738.816 504.183 738.847 505.774 738.862 507.413C738.004 514.481 734.977 518.492 730.015 523.454C724.819 526.715 722.478 527.198 716.455 526.091C711.056 522.564 707.842 519.787 704.94 513.998C703.223 504.994 702.396 497.926 706.703 489.609C713.288 481.948 716.923 479.56 727.378 480.84Z" fill="#FAF9FA"/>
<path d="M2082.45 613.668C2024.01 613.668 1991.07 573.641 1990.36 518.382L2044.55 515.903C2044.91 551.679 2059.08 568.327 2082.45 568.327C2106.19 568.327 2120.36 552.033 2120.36 517.674V356.503H2174.2V517.674C2174.2 576.12 2137.36 613.668 2082.45 613.668ZM2235.9 608L2326.58 356.503H2390.34L2481.02 608H2425.05L2406.63 554.513H2309.93L2291.51 608H2235.9ZM2325.16 510.235H2391.76L2358.46 413.179L2325.16 510.235ZM2551.23 608V356.503H2661.39C2716.65 356.503 2751.72 385.904 2751.72 431.598C2751.72 462.061 2733.65 484.731 2707.09 492.524C2732.24 496.066 2745.7 510.235 2747.82 535.739L2754.2 608H2699.29L2694.69 544.24C2693.27 525.112 2684.06 515.903 2658.56 515.903H2605.07V608H2551.23ZM2655.37 470.917C2681.23 470.917 2696.46 458.165 2696.46 436.203C2696.46 413.887 2681.58 401.844 2653.6 401.844H2605.07V470.917H2655.37ZM2896.24 608L2805.56 356.503H2861.17L2928.12 547.428L2994.71 356.503H3050.68L2959.29 608H2896.24ZM3193.09 608V510.235L3105.95 356.503H3165.46L3220.37 457.81L3274.92 356.503H3334.42L3247.29 510.235V608H3193.09Z" fill="white"/>
</svg>
