<svg width="1536" height="579" viewBox="0 0 1536 579" fill="none" xmlns="http://www.w3.org/2000/svg">
<g clip-path="url(#clip0_3_38)">
<path d="M555.969 0.187245C561.243 2.0909 563.708 4.11939 567.516 8.19197C569.326 10.0956 569.326 10.0956 571.167 12.0461C575.099 16.4152 578.969 20.8154 582.823 25.2625C585.834 28.6953 588.877 32.0813 591.998 35.4049C592.965 36.4504 593.933 37.4958 594.931 38.5725C597.927 41.0535 597.927 41.0535 601.657 41.8805C608.522 40.2109 612.033 35.1241 616.574 29.9436C618.025 28.3364 618.025 28.3364 619.507 26.698C622.254 23.6397 624.984 20.5501 627.684 17.4606C628.901 16.0719 630.118 14.6987 631.382 13.2788C633.114 11.3127 634.83 9.33105 636.531 7.33377C637.218 6.55358 637.904 5.77339 638.606 4.9776C639.745 3.66688 639.745 3.66688 640.9 2.34056C643.287 0.296472 643.287 0.296471 648.561 0C654.928 2.0909 654.928 2.0909 657.815 7.03729C658.47 8.16076 659.125 9.28424 659.812 10.4389C660.545 11.734 661.263 13.0135 662.012 14.3399C662.854 15.7754 663.682 17.2265 664.54 18.7245C667.27 23.4837 669.97 28.274 672.654 33.0644C673.574 34.7184 674.511 36.3724 675.478 38.0732C677.756 42.1301 680.034 46.1715 682.297 50.2285C688.897 50.603 692.486 50.525 697.542 46.1715C698.572 45.3133 699.601 44.4551 700.647 43.5657C701.708 42.6451 702.769 41.7088 703.861 40.757C706.077 38.9002 708.293 37.0433 710.508 35.1865C714.019 32.1906 717.515 29.179 720.994 26.1519C726.409 21.6424 729.639 19.2394 736.629 17.7415C741.591 19.021 741.591 19.021 744.852 23.1404C747.864 28.4144 749.331 32.7367 750.672 38.6349C751.125 40.5386 751.577 42.4578 752.046 44.4239C752.498 46.4056 752.935 48.3872 753.403 50.4157C754.293 54.3635 755.213 58.2956 756.134 62.2278C756.524 63.9754 756.93 65.7074 757.335 67.5019C758.74 72.0113 760.362 74.7576 763.436 78.3153C770.318 77.4571 775.436 75.7562 781.521 72.4951C783.144 71.6681 784.751 70.8255 786.405 69.9516C789.76 68.1728 793.099 66.394 796.438 64.5996C812.541 56.2359 812.541 56.2359 821.17 58.0304C825.586 61.4008 827.24 63.242 828.223 68.7658C828.239 70.4666 828.254 72.183 828.254 73.9462C828.301 75.8343 828.332 77.7223 828.364 79.6572C828.379 81.6233 828.379 83.5893 828.395 85.6178C828.52 98.2101 828.801 109.819 832.093 122.006C842.938 122.474 852.877 120.227 863.441 117.98C885.832 113.424 885.832 113.424 893.837 118.105C899.33 127.654 895.179 140.574 893.057 150.764C890.966 160.937 889.281 170.955 888.266 181.3C893.915 185.061 896.989 184.951 903.714 185.232C905.867 185.341 908.021 185.466 910.174 185.576C913.56 185.732 916.946 185.872 920.332 186.028C923.609 186.168 926.87 186.34 930.147 186.512C932.097 186.59 934.063 186.683 936.076 186.761C941.616 187.573 944.721 188.805 949.121 192.223C950.916 197.497 951.072 200.43 949.293 205.704C948.528 207.109 947.764 208.513 946.983 209.964C946.125 211.571 945.283 213.194 944.393 214.848C942.193 218.827 939.884 222.759 937.574 226.691C936.935 227.784 936.295 228.876 935.639 229.999C934.391 232.137 933.112 234.275 931.801 236.381C927.76 243.247 926.589 248.022 927.276 256.198C938.37 260.068 949.527 263.064 960.933 265.841C962.65 266.278 964.382 266.699 966.145 267.136C970.358 268.182 974.571 269.212 978.768 270.241C978.768 268.307 978.753 266.387 978.737 264.406C978.643 246.243 978.581 228.096 978.534 209.933C978.503 200.586 978.472 191.255 978.425 181.924C978.378 172.905 978.347 163.902 978.331 154.883C978.316 151.45 978.3 148.017 978.285 144.584C978.253 139.763 978.238 134.941 978.238 130.12C978.222 127.998 978.222 127.998 978.191 125.844C978.269 109.226 984.058 95.573 995.355 83.3709C1007.57 72.0894 1020.15 69.5772 1036.38 69.7176C1039.11 69.702 1039.11 69.702 1041.92 69.6864C1046.96 69.6708 1052 69.6708 1057.05 69.6864C1062.5 69.702 1067.96 69.6864 1073.41 69.6708C1084.08 69.6396 1094.75 69.6396 1105.42 69.6708C1114.1 69.6708 1122.78 69.6864 1131.45 69.6708C1133.29 69.6708 1133.29 69.6708 1135.2 69.6708C1137.71 69.6708 1140.22 69.6708 1142.73 69.6708C1166.26 69.6396 1189.81 69.6708 1213.34 69.702C1233.52 69.7332 1253.69 69.7176 1273.88 69.6864C1297.33 69.6552 1320.79 69.6552 1344.24 69.6708C1346.74 69.6708 1349.25 69.6708 1351.74 69.6708C1353.59 69.6708 1353.59 69.6708 1355.47 69.6708C1364.13 69.6864 1372.79 69.6708 1381.45 69.6552C1392.02 69.6396 1402.58 69.6396 1413.15 69.6708C1418.53 69.6864 1423.91 69.702 1429.3 69.6864C1435.13 69.6552 1440.98 69.6864 1446.83 69.7176C1448.52 69.702 1450.2 69.6864 1451.94 69.6708C1469.16 69.8424 1481.01 75.2413 1493.4 87.1002C1505.07 99.6768 1508.22 111.91 1508.16 128.762C1508.17 130.385 1508.17 132.008 1508.19 133.677C1508.2 139.108 1508.2 144.538 1508.2 149.983C1508.2 153.869 1508.22 157.77 1508.23 161.671C1508.25 171.158 1508.27 180.629 1508.27 190.116C1508.27 197.84 1508.27 205.548 1508.28 213.257C1508.31 235.149 1508.33 257.025 1508.33 278.917C1508.33 280.68 1508.33 280.68 1508.33 282.49C1508.33 283.661 1508.33 284.847 1508.33 286.064C1508.31 305.194 1508.34 324.308 1508.39 343.439C1508.44 363.099 1508.45 382.745 1508.45 402.405C1508.45 413.422 1508.47 424.453 1508.5 435.485C1508.53 445.862 1508.53 456.223 1508.5 466.599C1508.5 470.406 1508.52 474.214 1508.53 478.006C1508.55 483.217 1508.53 488.413 1508.52 493.609C1508.53 495.107 1508.55 496.605 1508.56 498.15C1508.39 515.767 1501.18 529.233 1489.01 541.747C1475.67 552.95 1459.49 554.932 1442.64 554.823C1440.86 554.838 1439.08 554.838 1437.25 554.854C1431.32 554.87 1425.39 554.87 1419.47 554.854C1415.21 554.854 1410.95 554.87 1406.69 554.885C1396.32 554.916 1385.96 554.916 1375.6 554.901C1367.18 554.901 1358.75 554.901 1350.34 554.916C1349.14 554.916 1347.94 554.916 1346.69 554.916C1344.26 554.916 1341.81 554.916 1339.37 554.916C1316.51 554.948 1293.65 554.932 1270.79 554.916C1249.9 554.901 1229.02 554.916 1208.13 554.963C1186.64 554.994 1165.17 555.01 1143.68 554.994C1131.64 554.994 1119.59 554.994 1107.55 555.026C1097.29 555.057 1087.04 555.057 1076.79 555.026C1071.56 555.01 1066.34 555.01 1061.11 555.026C1055.43 555.057 1049.75 555.041 1044.07 555.01C1042.45 555.026 1040.81 555.041 1039.12 555.057C1022.74 554.885 1007.92 550.095 995.932 538.626C984.869 526.268 984.869 526.268 983.449 518.341C977.629 523.085 972.293 527.782 967.409 533.508C960.793 541.17 953.865 548.503 946.905 555.837C942.552 560.44 938.214 565.028 934.188 569.943C933.127 571.222 932.082 572.502 930.99 573.828C930.131 574.92 929.273 576.013 928.399 577.152C925.715 579.196 925.715 579.196 921.487 578.743C920.317 578.385 919.131 578.01 917.914 577.635C918.803 570.364 921.986 564.934 925.716 558.802C926.73 557.132 926.73 557.132 927.744 555.416C930.178 551.374 932.628 547.333 935.078 543.307C936.654 540.717 938.23 538.127 939.806 535.537C940.929 533.68 942.037 531.839 943.16 529.997C946.063 525.223 948.949 520.463 951.821 515.689C956.611 507.715 961.401 499.788 966.738 492.174C978.753 474.588 979.533 458.22 978.768 437.202C977.879 436.905 976.974 436.624 976.038 436.312C968.922 434.003 962.057 431.506 955.269 428.323C953.802 427.637 952.335 426.95 950.822 426.248C949.761 425.749 948.684 425.234 947.561 424.719C948.528 426.154 948.528 426.154 949.511 427.621C961.37 445.409 961.37 445.409 960.044 454.366C952.772 464.774 942.599 473.605 933.627 482.546C932.285 483.888 930.958 485.23 929.585 486.603C927.604 488.585 927.604 488.585 925.591 490.598C924.405 491.768 923.234 492.938 922.033 494.14C918.787 497.229 915.495 500.163 912.093 503.081C904.744 509.463 897.988 516.344 891.184 523.303C888.485 526.034 885.785 528.765 883.086 531.495C878.889 535.755 874.676 540.03 870.494 544.306C866.406 548.472 862.317 552.607 858.214 556.742C856.965 558.037 855.717 559.332 854.422 560.659C853.252 561.829 852.066 563.015 850.864 564.232C849.319 565.808 849.319 565.808 847.743 567.399C844.092 570.208 841.315 570.832 836.774 571.394C835.401 566.807 834.808 564.482 836.852 560.05C837.695 558.849 838.553 557.647 839.427 556.414C840.363 555.057 841.315 553.684 842.298 552.279C843.343 550.828 844.389 549.377 845.465 547.879C846.526 546.366 847.587 544.852 848.695 543.292C850.895 540.14 853.127 536.988 855.358 533.851C859.29 528.328 863.176 522.757 867.061 517.202C869.745 513.364 872.429 509.541 875.112 505.718C880.652 497.807 886.129 489.849 891.59 481.86C892.417 480.643 893.244 479.425 894.102 478.177C898.44 471.826 902.747 465.445 906.991 459.047C899.486 459.921 892.932 461.466 885.848 464.118C883.897 464.852 881.931 465.569 879.981 466.287C878.967 466.662 877.952 467.036 876.891 467.426C855.764 475.259 834.511 481.875 812.619 487.321C808.422 488.366 804.24 489.443 800.074 490.52C781.958 495.216 763.842 499.039 745.398 502.145C744.041 502.379 742.683 502.613 741.295 502.847C713.411 507.575 685.542 510.274 657.331 512.1C654.272 512.303 654.272 512.303 651.152 512.537C636.313 513.551 621.505 514.097 606.619 514.144C605.433 514.144 604.231 514.144 602.999 514.159C554.627 514.175 505.194 509.978 457.603 501.177C455.605 500.803 453.592 500.444 451.517 500.054C400.462 490.613 351.856 475.244 303.125 457.487C307.775 465.881 312.893 473.777 318.339 481.672C319.213 482.936 320.087 484.2 320.992 485.511C329.153 497.37 337.391 509.166 345.63 520.978C352.387 530.668 359.049 540.421 365.54 550.298C367.928 553.918 370.3 557.429 373.015 560.815C374.903 563.592 374.903 563.592 374.419 567.883C373.889 569.615 373.889 569.615 373.342 571.394C365.681 570.707 361.998 567.275 356.475 562.125C355.695 561.408 354.914 560.705 354.103 559.972C352.121 558.131 350.249 556.18 348.376 554.23L345 551L340.5 546.5C340.5 546.5 337.048 543.385 333.007 539.344C331.665 538.033 331.665 538.033 330.292 536.676C327.342 533.773 324.393 530.855 321.444 527.922C319.4 525.893 317.34 523.849 315.296 521.821C311.005 517.561 306.714 513.286 302.423 509.01C296.931 503.549 291.423 498.103 285.899 492.673C281.655 488.476 277.426 484.263 273.197 480.05C271.185 478.037 269.14 476.024 267.096 474.027C264.256 471.234 261.432 468.394 258.608 465.569C257.765 464.742 256.923 463.931 256.049 463.088C250.432 457.346 248.653 453.008 248.512 445.004C250.416 440.947 252.148 437.779 254.66 434.175C255.269 433.254 255.862 432.333 256.486 431.397C257.968 429.15 259.482 426.934 260.995 424.719C248.341 432.661 236.778 441.914 225.107 451.245C227.744 458.438 231.333 464.961 235.062 471.624C235.748 472.856 236.435 474.089 237.153 475.368C243.644 486.915 250.447 498.275 257.297 509.603C263.57 519.98 269.749 530.419 275.928 540.857C278.035 544.431 280.157 548.004 282.263 551.593C283.168 553.106 284.073 554.636 285.009 556.212C286.695 559.051 288.427 561.86 290.237 564.653C292.203 568.273 292.203 568.273 291.719 572.658C291.189 574.343 291.189 574.343 290.642 576.075C284.51 575.264 281.608 574.015 277.457 569.444C276.505 568.398 275.538 567.368 274.555 566.292C273.057 564.606 273.057 564.606 271.528 562.906C270.498 561.766 269.453 560.627 268.376 559.442C265.38 556.165 262.415 552.857 259.435 549.549C258.124 548.082 256.814 546.631 255.456 545.133C253.256 542.699 251.056 540.249 248.871 537.799C242.349 530.543 235.702 523.412 229.07 516.25C226.745 513.723 224.42 511.195 222.08 508.683C215.495 501.52 208.894 494.374 202.247 487.274C201.28 486.244 200.312 485.214 199.314 484.153C197.457 482.172 195.6 480.19 193.743 478.208C191.184 475.478 188.641 472.731 186.097 469.97C185.223 469.002 184.334 468.035 183.413 467.036C182.571 466.084 181.713 465.132 180.839 464.149C180.074 463.307 179.325 462.464 178.529 461.59C176.735 459.047 176.735 459.047 175.674 453.476C178.171 440.993 189.764 434.284 199.189 426.747C203.792 423.033 208.317 419.242 212.827 415.45C213.716 414.717 214.605 413.968 215.51 413.219C220.207 409.38 220.207 409.38 223.546 404.434C222.501 404.262 221.455 404.106 220.379 403.934C190.747 397.1 157.979 374.521 139.879 350.304C131.297 340.037 117.472 336.105 105.441 331.065C74.1091 317.661 46.4124 294.287 33.1804 262.44C32.447 260.661 32.447 260.661 31.6825 258.851C28.1872 248.708 28.078 238.613 28.0156 228.002C28.0156 226.567 28 225.131 28 223.649C28.3277 192.223 42.7767 165.962 63.4205 143.024C65.9483 140.73 65.9483 140.73 69.0691 140.73C69.4123 142.166 69.4123 142.166 69.7556 143.617C74.6084 163.839 79.8669 183.032 89.3539 201.585C89.8845 202.615 90.415 203.66 90.9611 204.721C99.3716 220.98 109.108 236.943 122.122 249.957C124.182 249.957 126.241 249.957 128.363 249.957C133.7 230.702 133.7 230.702 136.165 210.947C136.228 209.356 136.29 207.764 136.368 206.126C136.633 191.864 135.011 178.211 133.044 164.136C132.498 159.455 131.999 154.774 131.484 150.093C161.038 162.498 189.78 191.458 202.388 220.856C211.75 248.084 203.573 273.986 191.964 299.077C189.702 303.602 187.361 307.706 184.537 311.872C181.057 316.569 181.057 316.569 181.619 320.751C186.144 334.357 199.517 345.14 211.063 352.941C212.093 353.628 213.107 354.33 214.168 355.032C219.162 358.294 219.162 358.293 224.919 358.949C229.491 357.108 232.659 354.361 236.419 351.178C237.933 349.93 239.431 348.666 240.96 347.371C246.64 342.502 252.304 337.619 257.875 332.657C257.297 324.745 253.037 320.595 247.732 315.196C246.905 314.307 246.062 313.417 245.204 312.512C241.272 308.346 237.278 304.226 233.236 300.154C222.704 289.216 222.704 289.216 222.376 282.818C223.656 277.606 224.155 276.561 228.227 273.362C231.754 271.817 235.327 270.444 238.932 269.149C240.476 268.587 240.476 268.587 242.068 268.01C245.345 266.824 248.637 265.654 251.93 264.484C254.161 263.672 256.408 262.877 258.639 262.065C264.1 260.099 269.577 258.133 275.039 256.198C275.554 247.756 274.415 242.763 270.326 235.383C269.343 233.588 268.36 231.809 267.362 229.968C266.316 228.111 265.271 226.254 264.225 224.398C263.18 222.51 262.134 220.622 261.105 218.718C257.048 210.463 257.048 210.463 251.633 203.145C251.742 197.871 251.742 197.871 253.193 192.223C259.825 187.994 265.396 186.871 273.151 186.449C275.132 186.34 277.13 186.215 279.174 186.09C281.218 185.981 283.277 185.888 285.384 185.778C289.472 185.56 293.545 185.326 297.633 185.092C299.443 184.998 301.237 184.905 303.094 184.811C306.964 184.483 310.35 183.953 314.048 182.86C313.767 181.409 313.486 179.958 313.19 178.476C312.144 173.046 311.099 167.631 310.054 162.201C309.601 159.876 309.149 157.536 308.696 155.195C308.025 151.825 307.385 148.439 306.746 145.068C306.543 144.038 306.324 143.008 306.121 141.947C302.735 123.941 302.735 123.941 306.433 117.309C317.075 111.692 336.923 118.12 348.454 120.414C355.289 121.741 361.702 122.474 368.661 122.006C372.531 118.136 372.172 115.905 372.219 110.631C372.219 108.961 372.219 108.961 372.219 107.245C372.25 104.873 372.281 102.501 372.313 100.129C372.344 96.3844 372.375 92.6551 372.391 88.9102C372.406 85.3057 372.453 81.6857 372.515 78.0812C372.5 76.9733 372.5 75.8655 372.484 74.7264C372.593 69.1559 373.264 65.9571 376.182 61.1823C379.584 58.0304 379.584 58.0304 384.936 57.7339C394.782 59.6532 403.723 64.662 412.648 69.0466C416.237 70.7943 419.842 72.5419 423.446 74.2739C425.022 75.0385 426.598 75.8187 428.236 76.6144C432.684 78.3309 435.726 78.6741 440.439 78.3153C442.639 71.9333 444.496 65.5826 446.103 59.029C446.789 56.2672 446.789 56.2672 447.491 53.4585C448.459 49.6043 449.411 45.7502 450.347 41.8805C451.049 39.1342 451.049 39.1342 451.751 36.3099C452.173 34.6403 452.578 32.9707 453 31.2387C454.498 26.776 455.902 23.9518 459.163 20.5814C468.042 19.255 472.582 21.3928 479.651 26.62C480.509 27.2442 481.367 27.8683 482.257 28.5081C486.875 31.8785 491.385 35.4049 495.863 38.9782C496.768 39.6804 497.658 40.3825 498.578 41.1159C501.075 43.0976 503.556 45.1261 506.021 47.1546C510.905 50.3845 514.244 51.3052 520.018 51.7889C526.883 41.3812 532.282 30.5053 537.572 19.255C546.731 0.390093 546.731 0.390094 555.969 0.187245Z" fill="#FD6111"/>
<path d="M1046.37 100.933C1048.99 100.918 1048.99 100.918 1051.67 100.902C1057.51 100.886 1063.36 100.902 1069.19 100.933C1073.39 100.933 1077.59 100.918 1081.79 100.902C1091.99 100.886 1102.2 100.902 1112.4 100.918C1124.29 100.949 1136.18 100.949 1148.07 100.933C1169.28 100.933 1190.5 100.949 1211.72 100.98C1232.29 101.027 1252.87 101.042 1273.45 101.027C1295.87 100.996 1318.29 100.996 1340.7 101.027C1343.1 101.027 1345.49 101.027 1347.88 101.027C1349.06 101.027 1350.23 101.027 1351.45 101.027C1359.74 101.042 1368.01 101.042 1376.29 101.027C1386.39 101.027 1396.48 101.027 1406.59 101.058C1411.74 101.074 1416.89 101.089 1422.04 101.074C1427.61 101.058 1433.2 101.089 1438.79 101.105C1440.41 101.105 1442.03 101.089 1443.72 101.089C1455.15 101.183 1462.86 102.556 1471.66 110.389C1475.89 115.242 1476.73 117.489 1476.75 123.73C1476.77 125.088 1476.77 126.445 1476.78 127.834C1476.78 129.332 1476.78 130.814 1476.78 132.359C1476.8 134.731 1476.8 134.731 1476.81 137.15C1476.83 142.486 1476.84 147.807 1476.86 153.143C1476.87 156.951 1476.89 160.758 1476.91 164.565C1476.95 176.018 1476.98 187.472 1477.01 198.925C1477.01 202.17 1477.03 205.4 1477.03 208.63C1477.08 228.728 1477.12 248.81 1477.16 268.908C1477.16 273.558 1477.16 278.207 1477.17 282.873C1477.17 284.028 1477.17 285.182 1477.17 286.368C1477.2 305.108 1477.26 323.848 1477.34 342.573C1477.42 361.812 1477.47 381.036 1477.48 400.276C1477.48 411.073 1477.51 421.871 1477.58 432.669C1477.64 442.827 1477.64 453.001 1477.62 463.159C1477.62 466.888 1477.64 470.617 1477.67 474.347C1477.72 479.434 1477.7 484.536 1477.67 489.623C1477.7 491.09 1477.72 492.572 1477.75 494.086C1477.62 503.229 1475.8 508.847 1469.77 515.822C1461.08 524.232 1451.89 523.686 1440.49 523.639C1437.85 523.639 1437.85 523.639 1435.17 523.655C1429.3 523.686 1423.43 523.686 1417.55 523.67C1413.35 523.686 1409.14 523.701 1404.93 523.717C1394.69 523.748 1384.44 523.748 1374.19 523.748C1365.85 523.748 1357.52 523.748 1349.2 523.764C1346.8 523.764 1344.4 523.764 1342 523.779C1340.2 523.779 1340.2 523.779 1338.38 523.779C1315.78 523.811 1293.19 523.811 1270.59 523.795C1249.93 523.795 1229.27 523.826 1208.61 523.873C1187.39 523.92 1166.17 523.951 1144.95 523.935C1133.03 523.935 1121.12 523.951 1109.2 523.982C1099.08 524.013 1088.93 524.029 1078.79 523.998C1073.61 523.982 1068.45 523.982 1063.27 524.014C1057.66 524.045 1052.05 524.013 1046.43 523.982C1044.81 524.013 1043.18 524.029 1041.51 524.045C1031.15 523.92 1024.1 522.157 1016.22 515.213C1009 507.349 1009.09 500.265 1009.2 490.107C1009.18 488.531 1009.17 486.955 1009.17 485.316C1009.14 480.026 1009.15 474.737 1009.18 469.447C1009.17 465.64 1009.15 461.848 1009.14 458.056C1009.12 448.819 1009.12 439.566 1009.14 430.329C1009.15 422.823 1009.15 415.318 1009.15 407.797C1009.15 406.736 1009.15 405.659 1009.15 404.567C1009.14 402.382 1009.14 400.213 1009.14 398.044C1009.12 377.666 1009.14 357.303 1009.18 336.924C1009.2 319.464 1009.2 301.988 1009.17 284.527C1009.14 264.227 1009.12 243.926 1009.14 223.641C1009.15 221.472 1009.15 219.303 1009.15 217.134C1009.15 215.543 1009.15 215.543 1009.15 213.904C1009.15 206.415 1009.15 198.909 1009.14 191.419C1009.12 181.308 1009.12 171.213 1009.17 161.117C1009.17 157.419 1009.17 153.705 1009.15 149.991C1009.14 144.936 1009.17 139.88 1009.2 134.825C1009.18 133.358 1009.17 131.891 1009.15 130.377C1009.26 121.062 1010.37 115.335 1016.22 107.955C1025.32 100.793 1035.23 100.824 1046.37 100.933Z" fill="#1C1F2A"/>
<path d="M1365.75 151.647C1367.75 155.642 1367.14 157.499 1366.47 161.883C1366.12 164.099 1366.12 164.099 1365.78 166.377C1365.53 168 1365.27 169.623 1365 171.292C1364.75 172.962 1364.48 174.647 1364.22 176.379C1363.38 181.856 1362.52 187.333 1361.66 192.81C1361.07 196.524 1360.49 200.253 1359.91 203.982C1349.75 268.878 1349.75 268.878 1345.46 285.84C1346.95 285.824 1346.95 285.824 1348.46 285.793C1358.71 285.652 1368.95 285.559 1379.2 285.496C1383.04 285.465 1386.86 285.418 1390.68 285.372C1396.19 285.294 1401.68 285.262 1407.18 285.231C1408.89 285.2 1410.61 285.169 1412.37 285.137C1413.98 285.137 1415.57 285.137 1417.21 285.137C1419.32 285.106 1419.32 285.106 1421.45 285.091C1425.04 285.84 1425.04 285.84 1427.84 288.758C1430.19 292.908 1430.4 295.171 1429.72 299.883C1427.98 303.097 1427.98 303.097 1425.4 306.468C1420.21 313.521 1415.28 320.667 1410.45 327.97C1408.88 330.342 1407.29 332.713 1405.71 335.085C1404.9 336.318 1404.07 337.566 1403.23 338.83C1387.17 363.016 1370.99 387.108 1354.73 411.153C1338.41 435.292 1318.31 464.518 1302.5 489C1302.5 489 1305.02 475.379 1306.03 470.151C1306.31 468.638 1306.59 467.124 1306.89 465.564C1307.22 463.925 1307.55 462.287 1307.87 460.602C1308.2 458.885 1308.53 457.185 1308.87 455.421C1309.93 449.866 1311.03 444.311 1312.1 438.757C1313.2 433.092 1314.29 427.428 1315.38 421.764C1316.1 418.035 1316.8 414.305 1317.53 410.576C1321.32 390.884 1324.84 371.13 1328.3 351.375C1327.33 351.391 1326.36 351.407 1325.38 351.422C1315.36 351.563 1305.33 351.656 1295.31 351.719C1291.57 351.75 1287.82 351.797 1284.08 351.844C1278.71 351.922 1273.33 351.953 1267.96 351.984C1265.45 352.031 1265.45 352.031 1262.89 352.078C1260.55 352.078 1260.55 352.078 1258.15 352.078C1256.77 352.093 1255.41 352.109 1253.99 352.124C1249.02 351.126 1247.16 349.051 1244.04 345.134C1243.06 338.128 1244.3 334.211 1248.22 328.438C1249.14 327.049 1250.06 325.676 1251.01 324.256C1252.03 322.774 1253.04 321.291 1254.09 319.778C1256.24 316.563 1258.38 313.365 1260.53 310.15C1261.67 308.465 1262.8 306.796 1263.97 305.079C1267.48 299.852 1270.92 294.593 1274.36 289.319C1274.93 288.445 1275.5 287.572 1276.09 286.667C1277.79 284.045 1279.49 281.439 1281.19 278.818C1287.92 268.504 1294.69 258.205 1301.54 247.969C1309.81 235.58 1317.99 223.113 1326.15 210.645C1353.02 169.638 1353.02 169.638 1365.75 151.647Z" fill="#FC6211"/>
<path d="M495.059 262.434C496.635 263.308 498.211 264.166 499.834 265.071C514.158 276.337 523.677 290.958 526.267 309.245C527.89 336.63 524.425 357.398 509.399 380.726C497.681 392.444 484.293 398.265 467.846 398.873C452.789 398.468 440.493 392.835 429.523 382.583C421.191 373.704 416.042 364.498 412.359 352.936C412 351.906 411.657 350.876 411.298 349.815C405.072 327.845 408.209 302.099 418.788 282.235C426.247 270.205 437.669 260.421 451.665 256.895C466.567 254.507 481.952 254.304 495.059 262.434Z" fill="#1D1F2A"/>
<path d="M758.275 268.285C771.819 281.455 779.106 298.978 779.59 317.609C779.855 342.59 776.391 363.546 758.759 382.583C746.276 394.379 733.918 397.407 717.081 397.282C707.984 396.985 700.931 395.456 693.223 390.385C691.6 389.371 691.6 389.371 689.946 388.325C674.53 377.761 665.823 361.674 662.016 343.574C659.238 320.527 660.97 297.199 675.107 278.022C675.934 276.992 676.761 275.978 677.619 274.917C678.431 273.918 679.227 272.935 680.054 271.905C702.227 247.174 733.325 252.042 758.275 268.285Z" fill="#1D1F2A"/>
<path d="M1084.88 154.768C1091.83 160.183 1097.71 166.487 1103.7 172.9C1106.13 175.459 1108.58 178.002 1111.03 180.53C1112.61 182.184 1114.2 183.838 1115.78 185.492C1120.89 190.844 1126.22 195.79 1131.86 200.565C1137.5 205.48 1142.71 210.817 1147.98 216.106C1149.11 217.23 1150.21 218.338 1151.38 219.493C1152.45 220.554 1153.51 221.63 1154.6 222.722C1155.57 223.69 1156.52 224.642 1157.5 225.64C1160.62 229.026 1161.31 230.883 1161.82 235.518C1160.61 248.25 1148.14 257.534 1139.62 266.163C1138.87 266.928 1138.12 267.693 1137.34 268.488C1133.38 272.53 1129.38 276.555 1125.4 280.566C1121.3 284.701 1117.23 288.882 1113.17 293.064C1110.03 296.279 1106.85 299.477 1103.68 302.676C1102.17 304.205 1100.67 305.734 1099.17 307.279C1085.19 321.775 1085.19 321.775 1073.79 322.196C1068.9 321.416 1066.3 319.044 1063.04 315.487C1060.46 310.338 1060.29 305.407 1061.48 299.883C1063.54 296.887 1063.54 296.887 1066.25 293.938C1067.25 292.861 1068.25 291.769 1069.26 290.661C1074.11 285.606 1079.08 280.69 1084.1 275.822C1086.29 273.684 1088.45 271.547 1090.62 269.409C1094.03 266.085 1097.41 262.777 1100.83 259.485C1104.14 256.271 1107.43 253.025 1110.72 249.779C1111.75 248.796 1112.8 247.813 1113.86 246.783C1114.78 245.863 1115.71 244.942 1116.68 243.975C1117.51 243.179 1118.34 242.368 1119.19 241.525C1121.1 239.075 1121.1 239.075 1120.47 235.861C1118.4 230.821 1114.45 227.435 1110.63 223.69C1109.75 222.816 1108.88 221.958 1107.99 221.068C1106.15 219.227 1104.29 217.402 1102.45 215.576C1099.64 212.83 1096.87 210.068 1094.09 207.29C1085.83 199.098 1077.58 190.984 1068.61 183.573C1064.81 180.046 1061.87 176.754 1060.7 171.651C1060.51 164.645 1060.84 161.837 1065.28 156.141C1071.68 151.913 1077.89 152.084 1084.88 154.768Z" fill="#FCFCFC"/>
<path d="M537.189 410.67C575.294 410.67 613.398 410.67 652.657 410.67C650.722 426.164 645.558 436.432 633.449 446.465C631.046 448.119 628.612 449.726 626.131 451.24C624.492 452.254 624.492 452.254 622.807 453.284C613.991 457.699 605.3 458.074 595.61 458.168C594.377 458.183 593.129 458.199 591.865 458.214C574.951 457.965 562.842 451.817 550.968 440.098C542.229 430.736 537.189 423.839 537.189 410.67Z" fill="#1C1E29"/>
<path d="M1168.12 292.77C1169.75 292.77 1169.75 292.77 1171.4 292.786C1173.68 292.801 1175.96 292.832 1178.23 292.879C1181.71 292.957 1185.19 292.973 1188.67 292.988C1207.68 293.176 1207.68 293.176 1212.83 296.764C1216.71 302.6 1216.67 305.456 1215.95 312.368C1213.16 316.659 1211.19 319.421 1206.59 321.73C1199.55 322.167 1192.5 322.214 1185.44 322.277C1183.1 322.308 1180.76 322.339 1178.41 322.401C1175.02 322.495 1171.63 322.526 1168.23 322.542C1165.19 322.589 1165.19 322.589 1162.09 322.635C1155.31 321.496 1153.08 319.203 1148.85 313.929C1147.82 310.714 1147.82 310.714 1147.89 307.687C1147.85 306.688 1147.84 305.69 1147.82 304.66C1151.07 294.564 1158.48 292.676 1168.12 292.77Z" fill="#F8F8F8"/>
<path d="M743.159 285.84C748.73 289.226 751.663 292.331 754.082 298.323C755.205 307.935 755.143 316.735 749.401 324.849C745.281 329.078 742.831 330.857 737.011 331.964C730.458 330.763 727.493 328.017 722.874 323.289C718.864 315.144 718.661 307.232 719.753 298.323C725.09 287.837 731.394 283.952 743.159 285.84Z" fill="#FAF9FA"/>
<path d="M490.378 285.84C495.886 289.257 498.929 292.331 501.301 298.323C501.769 302.754 501.769 302.754 501.784 307.591C501.816 309.183 501.847 310.774 501.862 312.413C501.004 319.481 497.977 323.492 493.015 328.454C487.819 331.715 485.478 332.198 479.455 331.091C474.056 327.564 470.842 324.787 467.94 318.998C466.223 309.994 465.396 302.926 469.703 294.609C476.288 286.948 479.923 284.56 490.378 285.84Z" fill="#FAF9FA"/>
</g>
<defs>
<clipPath id="clip0_3_38">
<rect width="1536" height="579" fill="white"/>
</clipPath>
</defs>
</svg>
